M48
;DRILL file {KiCad 0.201509040901+6154~29~ubuntu14.04.1-product} date mar. 22 sept. 2015 12:36:39 CEST
;FORMAT={-:-/ absolute / inch / decimal}
FMAT,2
INCH,TZ
T1C0.025
T2C0.039
T3C0.040
T4C0.059
T5C0.060
T6C0.118
T7C0.120
%
G90
G05
M72
T1
X4.8Y-3.2
X4.8Y-4.05
T2
X4.2Y-3.3
X4.2Y-3.7
X4.48Y-3.2
X4.48Y-3.3
T3
X3.5Y-3.3
X3.6Y-3.3
X3.7Y-3.3
X3.8Y-3.3
X3.9Y-3.3
X4.Y-3.3
T4
X3.8059Y-4.2437
X3.8059Y-4.4602
X3.9673Y-4.4602
X3.9713Y-4.2437
X4.1366Y-4.2437
X4.1366Y-4.4602
X4.302Y-4.2437
X4.302Y-4.4602
X4.4673Y-4.2437
X4.4673Y-4.4602
X4.6327Y-4.2437
X4.6327Y-4.4602
X4.798Y-4.2437
X4.798Y-4.4602
X4.9634Y-4.2437
X4.9634Y-4.4602
X5.1287Y-4.2437
X5.1287Y-4.4602
X5.2941Y-4.2437
X5.2941Y-4.4602
T5
X5.Y-3.3
X5.2Y-3.3
X5.45Y-3.3
X5.65Y-3.3
T6
X3.6209Y-4.4445
X5.4791Y-4.4445
T7
X3.3Y-3.575
X3.3Y-4.45
X5.9Y-3.575
X5.9Y-4.45
T0
M30
